<?xml version="1.0" encoding="UTF-8"?>
<svg width="24px" height="24px" stroke-width="1.5" viewBox="0 0 24 24" fill="none" xmlns="http://www.w3.org/2000/svg" color="#ffffff">
<path d="M12 22c5.523 0 10-4.477 10-10S17.523 2 12 2 2 6.477 2 12s4.477 10 10 10z" stroke="#ffffff" stroke-width="1.5" stroke-linecap="round" stroke-linejoin="round"/>
<path d="M15 8.5c-.685-.685-1.891-1.161-3-1.191M9 15c.644.644 1.791 1.161 3 1.191M12 7.309v0M12 16.691v0" stroke="#ffffff" stroke-width="1.5" stroke-linecap="round" stroke-linejoin="round"/>
<path d="M9.5 8.5c1.5 0 2.5-1.5 2.5-1.5s1 1.5 2.5 1.5c2 0 3 1.5 3 2.5s-1 2-3 2c-1.5 0-2.5 1.5-2.5 1.5s-1-1.5-2.5-1.5c-2 0-3-1-3-2s1-2.5 3-2.5z" stroke="#ffffff" stroke-width="1.5"/>
</svg>