<?xml version="1.0" encoding="UTF-8"?>
<svg width="24px" height="24px" stroke-width="1.5" viewBox="0 0 24 24" fill="none" xmlns="http://www.w3.org/2000/svg" color="#ffffff">
<path d="M3 7v10M21 7v10M7 3h10M7 21h10M6 8h1M6 12h1M6 16h1M17 8h1M17 12h1M17 16h1M8 6v1M12 6v1M16 6v1M8 17v1M12 17v1M16 17v1" stroke="#ffffff" stroke-width="1.5" stroke-linecap="round" stroke-linejoin="round"/>
<path d="M21 7.353v9.294a.6.6 0 01-.309.525l-8.4 4.666a.6.6 0 01-.582 0l-8.4-4.666A.6.6 0 013 16.647V7.353a.6.6 0 01.309-.524l8.4-4.667a.6.6 0 01.582 0l8.4 4.667a.6.6 0 01.309.524z" stroke="#ffffff" stroke-width="1.5"/>
</svg>